<?xml version="1.0" encoding="UTF-8"?>
<svg xmlns="http://www.w3.org/2000/svg" id="line" width="512" height="512" viewBox="0 0 64 64"><path d="M59.5,49.4014a.9985.9985,0,0,0-1.3662.3662l-.5.8661L55.86,49.6094a16.8191,16.8191,0,0,0,0-15.2188l1.7739-1.0243.5.8661a1,1,0,1,0,1.7324-1l-2-3.4648a1,1,0,1,0-1.7324,1l.5.8663-1.7682,1.0209A16.9887,16.9887,0,0,0,41.68,25.0507V23h1a1,1,0,0,0,0-2h-4a1,1,0,0,0,0,2h1v2.0507a16.9888,16.9888,0,0,0-13.186,7.6041l-1.7682-1.0209.5-.8663a1,1,0,0,0-1.7325-1l-2,3.4648a1,1,0,0,0,1.7325,1l.5-.8661,1.7739,1.0243a16.82,16.82,0,0,0,0,15.2188l-1.7739,1.0243-.5-.8661a1,1,0,0,0-1.7325,1l2,3.4648a1,1,0,0,0,1.7325-1l-.5-.8663,1.7682-1.0209A16.9888,16.9888,0,0,0,39.68,58.9493V61h-1a1,1,0,1,0,0,2h4a1,1,0,0,0,0-2h-1V58.9493a16.9887,16.9887,0,0,0,13.1859-7.6041l1.7682,1.0209-.5.8663a1,1,0,0,0,1.7324,1l2-3.4648A1.0007,1.0007,0,0,0,59.5,49.4014ZM35.18,50a2.5,2.5,0,1,1,2.5-2.5A2.5,2.5,0,0,1,35.18,50Zm0-11a2.5,2.5,0,1,1,2.5-2.5A2.5,2.5,0,0,1,35.18,39Zm11,11a2.5,2.5,0,1,1,2.5-2.5A2.5,2.5,0,0,1,46.18,50Zm0-11a2.5,2.5,0,1,1,2.5-2.5A2.5,2.5,0,0,1,46.18,39Z" style="fill:#c4a2fc"/><path d="M46,5.9954a1,1,0,0,0-.8037-.98l-20-4a1.3019,1.3019,0,0,0-.3926,0l-20,4A1,1,0,0,0,4,5.9954V25.599c0,.0548.0162.4534.0225.5079a25.9406,25.9406,0,0,0,20.7812,24.869.9958.9958,0,0,0,.3926,0A25.9409,25.9409,0,0,0,45.9785,26.0852c.0064-.0685.0215-.4565.0215-.4862Zm-2,19H37v-3a1,1,0,0,0-1-1H30v-6a1,1,0,0,0-1-1H26V3.215l18,3.6Zm-22,11v-6a1,1,0,0,0-1-1H15v-6h6a1,1,0,0,0,1-1v-6h6v6a1,1,0,0,0,1,1h6v6H29a1,1,0,0,0-1,1v6Zm2-32.78v10.78H21a1,1,0,0,0-1,1v6H14a1,1,0,0,0-1,1v3H6V6.8148ZM6.0615,26.9954H13v3a1,1,0,0,0,1,1h6v6a1,1,0,0,0,1,1h3V48.72A23.9276,23.9276,0,0,1,6.0615,26.9954ZM26,48.72V37.9954h3a1,1,0,0,0,1-1v-6h6a1,1,0,0,0,1-1v-3h6.9385A23.9276,23.9276,0,0,1,26,48.72Z" style="fill:#151a6a"/></svg>
